<svg xmlns="http://www.w3.org/2000/svg" viewBox="0 0 512 512" width="512" height="512" role="img" aria-label="Phila">
  <defs>
    <linearGradient id="g" x1="0" y1="0" x2="1" y2="1">
      <stop offset="0" stop-color="#1C7D58"/>
      <stop offset="1" stop-color="#34BC83"/>
    </linearGradient>
    <path id="p" d="M0 0C-48 -46 -52 -116 0 -172C52 -116 48 -46 0 0Z"/>
  </defs>
  <rect width="512" height="512" rx="112" fill="url(#g)"/>
  <g fill="#ffffff" transform="translate(256 256) scale(1.15) translate(-256 -260)">
    <use href="#p" transform="translate(256 336) rotate(-72) scale(0.8)"/>
    <use href="#p" transform="translate(256 336) rotate(-48) scale(0.9)"/>
    <use href="#p" transform="translate(256 336) rotate(-24) scale(0.97)"/>
    <use href="#p" transform="translate(256 336) rotate(0) scale(1)"/>
    <use href="#p" transform="translate(256 336) rotate(24) scale(0.97)"/>
    <use href="#p" transform="translate(256 336) rotate(48) scale(0.9)"/>
    <use href="#p" transform="translate(256 336) rotate(72) scale(0.8)"/>
    <use href="#p" transform="translate(256 336) rotate(-58) scale(0.52)"/>
    <use href="#p" transform="translate(256 336) rotate(-34) scale(0.56)"/>
    <use href="#p" transform="translate(256 336) rotate(-11) scale(0.58)"/>
    <use href="#p" transform="translate(256 336) rotate(11) scale(0.58)"/>
    <use href="#p" transform="translate(256 336) rotate(34) scale(0.56)"/>
    <use href="#p" transform="translate(256 336) rotate(58) scale(0.52)"/>
    <circle cx="256" cy="300" r="78"/>
  </g>
</svg>
